HIERARCHY
ROOT root
{
	OFFSET	0	13.1	24.9
	CHANNELS 6  Xposition Yposition Zposition Xrotation Yrotation Zrotation
	JOINT spine_1
	{
		OFFSET	0	9.99999	0
		CHANNELS 3  Xrotation Yrotation Zrotation
		JOINT spine_2
		{
			OFFSET	0	112	-10
			CHANNELS 3  Xrotation Yrotation Zrotation
			JOINT spine_3
			{
				OFFSET	0	206.5	19.3
				CHANNELS 3  Xrotation Yrotation Zrotation
				JOINT spine_4
				{
					OFFSET	0	110.4	14.6
					CHANNELS 3  Xrotation Yrotation Zrotation
					JOINT neck_1
					{
						OFFSET	0	71.8	-50.3
						CHANNELS 3  Xrotation Yrotation Zrotation
						JOINT neck_2
						{
							OFFSET	0	86.2	-25.8
							CHANNELS 3  Xrotation Yrotation Zrotation
							JOINT head_ee
							{
								OFFSET	0	179.8	-8.7
								CHANNELS 3  Xrotation Yrotation Zrotation
								End Site
								{
									OFFSET	1	0	0
								}
							}
						}
					}
					JOINT left_clavicle
					{
						OFFSET	-43.2	22.4	-70.8
						CHANNELS 3  Xrotation Yrotation Zrotation
						JOINT left_shoulder
						{
							OFFSET	-93.9	-5.79999	48.7
							CHANNELS 3  Xrotation Yrotation Zrotation
							JOINT left_elbow
							{
								OFFSET	-291.4	-30.8	15.2
								CHANNELS 3  Xrotation Yrotation Zrotation
								JOINT left_lowarm_twist
								{
									OFFSET	-110.7	-3.89999	13.6
									CHANNELS 3  Xrotation Yrotation Zrotation
									JOINT left_hand
									{
										OFFSET	-110.7	-3.89999	13.6
										CHANNELS 3  Xrotation Yrotation Zrotation
										JOINT left_ee
										{
											OFFSET	-80.8	-5.10001	12.1
											CHANNELS 3  Xrotation Yrotation Zrotation
											End Site
											{
												OFFSET	1	0	0
											}
										}
									}
								}
							}
						}
					}
					JOINT right_clavicle
					{
						OFFSET	43.2	22.4	-70.8
						CHANNELS 3  Xrotation Yrotation Zrotation
						JOINT right_shoulder
						{
							OFFSET	93.9	-5.79999	48.7
							CHANNELS 3  Xrotation Yrotation Zrotation
							JOINT right_elbow
							{
								OFFSET	291.4	-30.8	15.2
								CHANNELS 3  Xrotation Yrotation Zrotation
								JOINT right_lowarm_twist
								{
									OFFSET	110.7	-3.89999	13.6
									CHANNELS 3  Xrotation Yrotation Zrotation
									JOINT right_hand
									{
										OFFSET	110.7	-3.89999	13.6
										CHANNELS 3  Xrotation Yrotation Zrotation
										JOINT right_ee
										{
											OFFSET	80.8	-5.10001	12.1
											CHANNELS 3  Xrotation Yrotation Zrotation
											End Site
											{
												OFFSET	1	0	0
											}
										}
									}
								}
							}
						}
					}
				}
			}
		}
	}
	JOINT left_hip
	{
		OFFSET	-82.8	-127.5	0.300001
		CHANNELS 3  Xrotation Yrotation Zrotation
		JOINT left_knee
		{
			OFFSET	-28.2	-396.7	2.2
			CHANNELS 3  Xrotation Yrotation Zrotation
			JOINT left_ankle
			{
				OFFSET	-11.7	-411.3	35.4
				CHANNELS 3  Xrotation Yrotation Zrotation
				JOINT left_toes
				{
					OFFSET	0	-60	-88.6
					CHANNELS 3  Xrotation Yrotation Zrotation
					JOINT left_foot_ee
					{
						OFFSET	-22.5	-16.5	-42.2
						CHANNELS 3  Xrotation Yrotation Zrotation
						End Site
						{
							OFFSET	1	0	0
						}
					}
				}
			}
		}
	}
	JOINT right_hip
	{
		OFFSET	82.8	-127.5	0.300001
		CHANNELS 3  Xrotation Yrotation Zrotation
		JOINT right_knee
		{
			OFFSET	28.2	-396.7	2.2
			CHANNELS 3  Xrotation Yrotation Zrotation
			JOINT right_ankle
			{
				OFFSET	11.7	-411.3	35.4
				CHANNELS 3  Xrotation Yrotation Zrotation
				JOINT right_toes
				{
					OFFSET	0	-60	-88.6
					CHANNELS 3  Xrotation Yrotation Zrotation
					JOINT right_foot_ee
					{
						OFFSET	22.5	-16.5	-42.2
						CHANNELS 3  Xrotation Yrotation Zrotation
						End Site
						{
							OFFSET	1	0	0
						}
					}
				}
			}
		}
	}
}
MOTION
Frames: 5
Frame Time: 0.02
2184.61 708.83 -1434.85 -3.71766 76.7342 0.108215 0.93312 0.499788 0.556073 0.933172 0.463391 0.586748 0.938037 0.340687 0.665534 0.93769 0.441519 0.603379 -18.6964 18.8641 1.62382 -20.6008 35.4373 9.7923 -0.0 0.0 -0.0 1.78103 24.2127 5.19633 -29.8818 -8.56342 65.4411 1.25698 -31.9081 0.359357 -47.8567 -3.82276 4.56614 -1.49069 -2.34605 -11.0679 -0.0 0.0 -0.0 14.7379 25.9561 -29.7465 -16.7537 45.9369 -54.9398 0.263075 7.42508 -0.0170702 83.5787 4.25715 8.79849 -1.20604 -17.2366 0.340797 0.0 0.0 0.0 22.6648 5.81957 -5.25318 -41.2724 -0.549695 6.17547 20.0396 8.68742 -2.73662 18.8898 -0.0 -0.0 -0.0 0.0 -0.0 -7.7365 -2.77457 4.20532 -3.58632 -0.130958 -0.53472 37.9882 24.0367 5.35668 -9.66483 0.0 0.0 0.0 0.0 0.0 
2179.8 710.611 -1430.32 -4.08492 77.4722 0.761998 1.02465 0.401903 0.518124 1.02472 0.36812 0.542647 1.0283 0.256732 0.603378 1.02796 0.348801 0.555262 -19.5751 18.7793 2.60578 -21.5276 34.8288 10.9527 -0.0 0.0 -0.0 0.965563 24.0971 4.08686 -30.9381 -8.5155 68.1718 1.25262 -31.8188 0.357055 -47.2059 -3.74801 4.52885 -1.47812 -1.81947 -10.7445 -0.0 0.0 -0.0 14.515 25.8051 -29.2384 -15.6307 46.1521 -53.9357 0.307163 8.65193 -0.0232357 83.8658 4.29123 8.81249 -0.887797 -13.8571 -0.135247 0.0 0.0 0.0 23.6844 2.27732 -4.52913 -40.5974 -0.505208 6.0817 18.2026 9.52772 -2.50738 17.4491 -0.0 -0.0 -0.0 0.0 -0.0 -8.24778 -4.34984 3.8802 -2.93381 -0.109629 -0.43685 37.3694 23.0728 5.24747 -9.43312 0.0 0.0 0.0 0.0 0.0 
2172.99 711.055 -1429.09 -4.45425 78.9471 1.14666 1.07279 0.21928 0.428374 1.07287 0.191577 0.441459 1.0744 0.103349 0.470007 1.07413 0.17628 0.447787 -20.1905 18.2958 3.32444 -22.0558 33.5846 11.5434 -0.0 0.0 -0.0 0.270229 23.8895 3.12714 -32.2341 -8.31961 70.0603 1.25915 -31.9523 0.360502 -46.7721 -3.69844 4.50352 -1.42612 -1.84016 -10.399 -0.0 0.0 -0.0 14.0366 25.8821 -28.1034 -14.4647 46.9886 -53.234 0.374507 10.5102 -0.0344462 84.3924 4.35392 8.83773 -0.398117 -10.3747 -1.74661 0.0 0.0 0.0 25.6119 0.935542 -3.7313 -38.9965 -0.40416 5.85729 16.5645 10.7394 -2.29995 16.2423 -0.0 -0.0 -0.0 0.0 -0.0 -8.72096 -4.7437 4.054 -2.51046 -0.095194 -0.373483 36.6544 22.0473 5.12792 -9.73026 0.0 0.0 0.0 0.0 0.0 
2165.86 712.011 -1425.54 -5.08651 78.5705 1.87002 1.13803 0.282068 0.303601 1.13804 0.262178 0.320935 1.13955 0.196172 0.365038 1.13945 0.25136 0.329475 -20.5742 18.739 3.27322 -22.6262 34.4867 11.9023 -0.0 0.0 -0.0 -0.333945 24.1134 2.33489 -33.0315 -8.24305 71.2042 1.28949 -32.5679 0.376696 -46.4663 -3.66359 4.48544 -1.44448 -1.64625 -10.4368 -0.0 0.0 -0.0 14.3477 25.5893 -28.8705 -13.3778 47.7277 -52.0783 0.3763 10.5594 -0.0347739 84.2174 4.33307 8.82941 -0.6302 -10.4553 -0.298151 0.0 0.0 0.0 27.2793 -1.93069 -3.08084 -37.9707 -0.342736 5.71208 15.2761 11.3253 -2.13349 15.5232 -0.0 -0.0 -0.0 0.0 -0.0 -9.42313 -4.88394 4.18543 -2.14704 -0.0824293 -0.319168 37.9438 21.7641 5.24117 -8.74901 0.0 0.0 0.0 0.0 0.0 
2160.05 706.615 -1426.89 -6.75427 79.2983 3.33526 1.17628 -0.0626028 0.299735 1.17633 -0.0815488 0.295144 1.17591 -0.136161 0.274264 1.17581 -0.0911377 0.292326 -20.9184 18.6848 3.93761 -22.9486 34.0868 12.5831 -0.0 0.0 -0.0 -0.58043 23.7551 1.95743 -33.0657 -8.25093 72.3438 1.14567 -29.5754 0.302446 -46.2424 -3.63815 4.47209 -1.36233 -0.202347 -9.22774 -0.0 0.0 -0.0 13.6862 25.5409 -27.3246 -11.395 48.5145 -52.0454 0.528825 14.6798 -0.0681188 84.3273 4.34615 8.83464 -0.487968 -8.85468 -0.529506 0.0 0.0 0.0 28.3183 -3.26637 -2.5587 -32.4751 -0.0586659 4.91734 15.1513 12.5867 -2.12072 14.7706 -0.0 -0.0 -0.0 0.0 -0.0 -9.7961 -4.96594 4.20724 -1.58085 -0.0618559 -0.234712 36.761 20.9194 5.08805 -8.78659 0.0 0.0 0.0 0.0 0.0 
